#format: frame checksums
#version: 2
#hash: MD5
#tb 0: 1001/30000
#media_type 0: video
#codec_id 0: rawvideo
#dimensions 0: 226x226
#sar 0: 1/1
#stream#, dts,        pts, duration,     size, hash
0,          0,          0,        1,    76614, f2370fc802dafdf5082beffc1907a9c6
0,          1,          1,        1,    76614, aad6de7b986234a1d621935b272501c9
0,          2,          2,        1,    76614, 8a6d3784e22e3b4f735e78916fbc3821
0,          3,          3,        1,    76614, 0c4afce19c43fdf3bb1b972810cc9126
0,          4,          4,        1,    76614, 814a68dd76a3135221131988910f51ba
0,          5,          5,        1,    76614, b2379c4b28dca10e67ac58631f9731c0
0,          6,          6,        1,    76614, b16fd651884340a428cea3fe0ac18ba6
0,          7,          7,        1,    76614, cb65cd4c421cfd6a19fb123ec27abbe6
0,          8,          8,        1,    76614, 7f1d2686b9808de8ecc723b18136d57d
0,          9,          9,        1,    76614, da7fd4bff4b6db0221c42492876c5c4d
